<?xml version="1.0" encoding="UTF-8"?><svg id="b" xmlns="http://www.w3.org/2000/svg" viewBox="0 0 190.34 359.45"><defs><style>.q{fill:#2a3e51;}.r{fill:#fff3d4;}.s{fill:#f5ac7f;}.t{fill:#c46c56;}.u{fill:#1d6691;}.v{fill:#1cb9dd;}.w{fill:#00fecf;}</style></defs><g id="c"><g id="d"><g id="e"><path class="q" d="M89.76,100.06c-2.3-.15-4.2-1.02-5.83-2.65,1.81-3.1,3.44-6.31,4.89-9.59.7-1.58,1.4-3.18,1.96-4.82.47-1.36.95-1.58,2.34-2.09,6.78-2.48,13.83-4.21,20.99-5.13,2.58-.33,5.17-.56,7.76-.68,1.29,1.89,2.5,3.38,3.79,5.27-2.36,3.35-5.25,6.62-8.65,8.92-6.65-.27-13.51-.33-20.16,0-2.4,3.37-4.69,7.4-7.09,10.77Z"/><path class="r" d="M158.85,40.16c1.66-4.67,3.47-9.29,5.35-13.87-25.48,15.81-55.59,37.34-65.14,45.97.39.54,1.84,11.23,1.84,11.23,5.89.25,11.58.21,17.07-.12,2-7.04,4.6-13.9,7.33-20.7,10.96-7.39,22.59-15.11,33.55-22.5Z"/><path class="s" d="M164.2,26.28c-1.88,4.59-3.69,9.2-5.35,13.87-10.96,7.39-22.59,15.11-33.55,22.5-2.72,6.8-5.33,13.67-7.33,20.7,3.87-.23,7.65-.58,11.27-1.17l4.05-15.46c16.32-14.24,34.82-27.44,55.21-39.75l1.84-15.46c-7.02,3.33-16.23,8.61-26.14,14.76Z"/><path class="q" d="M106.15,75.55c.5-.39,1.14-.68,1.76-.54.47.11.85.46,1.11.86.72,1.1.6,2.69-.3,3.66-.85.92-3.14,1.52-4.04.31-.96-1.29.45-3.5,1.46-4.29Z"/></g><g id="f"><path class="t" d="M55.56,109.22c-1.51-.15-2.76-1.02-3.83-2.65,1.19-3.1,2.26-6.31,3.21-9.59.46-1.58.92-3.18,1.29-4.82.31-1.36.62-1.58,1.54-2.09,4.45-2.48,9.08-4.21,13.78-5.13,1.69-.33,3.39-.56,5.1-.68.85,1.89,1.64,3.38,2.49,5.27-1.55,3.35-3.45,6.62-5.68,8.92-4.37-.27-8.87-.33-13.24,0-1.58,3.37-3.08,7.4-4.65,10.77Z"/><path class="t" d="M100.92,49.31c1.09-4.67,2.28-9.29,3.51-13.87-16.73,15.81-36.5,37.34-42.77,45.97.26.54,1.21,11.23,1.21,11.23,3.87.25,7.6.21,11.21-.12,1.31-7.04,3.02-13.9,4.81-20.7,7.2-7.39,14.83-15.11,22.03-22.5Z"/><path class="t" d="M104.43,35.44c-1.24,4.59-2.42,9.2-3.51,13.87-7.2,7.39-14.83,15.11-22.03,22.5-1.79,6.8-3.5,13.67-4.81,20.7,2.54-.23,5.02-.58,7.4-1.17l2.66-15.46c10.71-14.24,22.86-27.44,36.25-39.75l1.21-15.46c-4.61,3.33-10.66,8.61-17.16,14.76Z"/><path class="t" d="M66.32,84.71c.33-.39.75-.68,1.15-.54.31.11.56.46.73.86.48,1.1.39,2.69-.2,3.66-.56.92-2.06,1.52-2.65.31-.63-1.29.3-3.5.96-4.29Z"/></g><g id="g"><path class="r" d="M31.22,152.96c.02,2.04.23,4.34,1.79,5.65,4.16,3.5,8.56-3.01,10.67-5.77,3.27-4.29,5.55-9.3,6.85-14.53,1.74-6.97,1.77-14.3.66-21.39-.31-2.01-.75-4.08-2.02-5.67-6.55-8.2-12.15,10.42-13.51,14.37-3,8.78-4.53,18.06-4.45,27.34Z"/><path class="s" d="M49.18,111.25c-6.33-7.92-11.78,9.2-13.36,13.93.4,7.26.01,14.56-1.26,21.72-1.23,1.31-2.37,2.89-3.32,4.55,0,.5-.02,1.01-.02,1.51.02,2.04.23,4.34,1.79,5.65,4.16,3.5,8.56-3.01,10.67-5.77,3.27-4.29,5.55-9.3,6.85-14.53,1.74-6.97,1.77-14.3.66-21.39-.31-2.01-.75-4.08-2.02-5.67Z"/><path class="q" d="M39.73,150.09c-.99-.72-2.38-.7-3.51-.22-1.13.48-2.03,1.36-2.85,2.28-2.51,2.84-4.37,6.25-5.4,9.89-.34,1.18.11,2.34.5,3.5.39,1.17,1.27,2.25,2.47,2.53.86.2,1.79-.04,2.49-.57.82-.61,1.06-1.48,1.53-2.34.61-1.13,1.24-2.25,1.85-3.37,1.22-2.23,2.51-4.44,3.75-6.64.84-1.5.66-3.98-.83-5.07Z"/><g id="h"><path class="r" d="M27.79,159.34c-7.61,6.56-12.95,15.71-14.92,25.56,1.39,2.78,4.46,4.09,7.32,2.89,3.82-1.61,14.41-14.57,15.18-18.64.39-2.09.37-4.35-.63-6.22-1-1.87-5.34-4.97-6.95-3.59Z"/><path class="s" d="M35.37,169.15c.39-2.09.37-4.35-.63-6.22s-5.34-4.97-6.95-3.59c-.44.38-.84.79-1.26,1.18-.28.81-.4,1.68-.37,2.52.09,2.22.97,4.32,1.84,6.36-1.99,4.5-4.94,8.57-8.5,11.97-1.71,1.63-4.51,1.96-6.55,3.19-.02.12-.06.23-.09.35,1.39,2.78,4.46,4.09,7.32,2.89,3.82-1.61,14.41-14.57,15.18-18.64Z"/><path class="q" d="M15.28,183.57c-4.63,3.8-8.89,8.05-12.71,12.67-2.45,2.97-1.76,7.14-1.98,10.99.57.43,1.34.68,2.05.69.64-2.26,1.67-4.4,2.99-6.34.88-1.3,2.25-1.72,3.49-2.67.86.02,1.73.31,2.44.8-.31,1.48-1.17,3.01-1.93,4.31-.96,1.64-1.32,3.41-1.47,5.3.55.19.86.34,1.41.53,1.57-1.93,2.97-3.76,4.85-5.38,2.45-2.11,1.95-5.77,1.97-9.01.01-2.78,2.23-4.62,3.4-7.14.33-.71.67-1.44.79-2.21.12-.78,0-1.63-.49-2.24-.53-.65-1.41-.93-2.24-.89-.83.03-1.93.08-2.57.61Z"/><path class="r" d="M5.85,198.94c-2.17-.37-3.91-1.05-5.85-2.08,2.39-4.22,5.75-7.88,9.76-10.61,1.27,1.29,2.31,3.07,2.85,4.79-1.33,3.32-3.51,6.39-6.76,7.9ZM15.21,194.24c-.5,2.28-1.19,4.51-2.07,6.67.74.4,1.59.41,2.42.34,1.25-1.49,2.23-3.19,2.56-5.1-.79-.92-1.77-1.5-2.91-1.91Z"/></g></g><g id="i"><path class="r" d="M72.41,288.76c-5.38,1.59-11.57,0-15.51-3.98-3.19-3.22-.57-9.25,2.54-12.56,3.4,1.21,6.71,3.69,9,6.48,2.29,2.79,3.46,6.49,3.97,10.06Z"/><path class="q" d="M67.17,195.23c-1.78,5.16-3.01,10.05-3.68,15.47-6.4-.4-12.31-2.78-17.22-6.9-.53-8.28,1.16-16.69,4.86-24.12,6.76,3.41,12.27,8.99,16.04,15.55Z"/><path class="r" d="M64.29,272.19c-9.69-3.85-16.95-12.42-21.23-21.93-4.28-9.51-5.9-19.98-7.05-30.35-.65-5.89-1.16-11.84-.66-17.75.51-5.91,2.67-11.45,5.9-16.42,3.29,11.29,12.43,20.7,23.62,24.3,9.28,2.99,9.48,16.88,10.87,26.53,1.39,9.65,1.62,19.53,4.33,28.9-3.5,2.58-8.52,5.79-15.79,6.71Z"/><path class="s" d="M61.52,270.88c.91.47,1.82.93,2.77,1.31,7.26-.93,12.29-4.13,15.79-6.71-2.71-9.37-2.94-19.25-4.33-28.9-1.39-9.65-1.58-23.54-10.87-26.53-2.85-.92-5.56-2.21-8.08-3.82,2.09,19.23,6.17,38.24,12.21,56.62-2.79,2.05-5.72,4.93-7.5,8.04Z"/><path class="q" d="M87.68,293.5c-4.8-8.51-8.72-17.69-11.16-27.15-4.59-1.57-10.09-.28-13.42,3.25,1.59,8.97,6.68,17.26,13.95,22.74,2.68,2.02,7.29,1.39,10.63,1.15Z"/><path class="s" d="M60.65,272.71c-2.46,6.5,5.01,13.62,11.69,16.07.02,0,.04,0,.06-.01-.52-3.57-1.69-7.27-3.97-10.06-2.01-2.45-4.82-4.67-7.78-5.99Z"/><g id="j"><path class="r" d="M99.84,302.43c1.4,5.8,1.82,11.84,1.82,18.74-1.43,2.85-4.59,4.86-7.78,4.51-9.8-9.49-17.14-21.47-21.1-34.46.79-1.32,1.51-2.24,2.99-2.68,1.49-.45,3.07-.49,4.62-.42,1.87.08,3.86.38,5.86.84,6.75,1.56,11.97,6.8,13.58,13.48Z"/><path class="s" d="M101.66,320.51c-.03-6.62-.46-12.47-1.81-18.08-1.61-6.68-6.83-11.92-13.58-13.48-2-.46-3.99-.75-5.86-.84-1.37-.06-2.76-.02-4.09.3,1.78.2,3.5.94,5.13,2.02,2.76,1.82,4.81,4.53,6.56,7.34,4.69,7.47,7.68,16,8.7,24.77,1.63-.55,3.31-1.23,4.95-2.02Z"/><path class="q" d="M99.86,358.05c-1.67,1.1-3.06.71-4.87-.14,2.25-11.38,1.76-23.3-1.42-34.45-.65-2.28,1.24-4.57,3-6.15,1-.9,2.39-1.62,3.67-1.18,2.62,15.97,1.48,28.55-.38,41.93Z"/></g><path class="s" d="M65.19,239.92c-11.36-3.07-21.69-9.82-29.07-18.98.12.87.47,1.66.59,2.52,8,8.86,17.91,16,29.2,19.88-.37-1.08-.35-2.33-.73-3.42Z"/></g><g id="k"><path class="s" d="M88.35,157.5c-.14-.1-.27-.21-.41-.31-10.77-4.9-34.76-2.42-43.21,1.64.01.08.02.16.03.24,5.45,1.15,11.08,1.17,16.66,1.18,9.06,0,18.33-.05,26.92-2.74Z"/><path class="r" d="M88.35,157.5c-8.59,2.69-17.87,2.75-26.92,2.74-5.58,0-11.21-.03-16.66-1.18.87,6.69,1.92,13.41,4.2,19.76,2.31,6.42,5.98,12.51,11.34,16.73,5.36,4.22,12.55,6.4,19.2,4.82,10.38-2.46,17.71-12.38,21.2-22.46.51-5.62-5.68-15.48-12.36-20.41Z"/><path class="s" d="M88.35,157.5c-3.44,1.08-6.99,1.72-10.58,2.12,3.43,5.66,6.2,11.72,8.17,18.04-4.75,6.57-7.51,14.81-7.8,22.95.46-.07.92-.12,1.37-.23,10.38-2.46,17.71-12.38,21.2-22.46.51-5.62-5.68-15.48-12.36-20.41Z"/><path class="q" d="M81.04,198.26c.41-4.6,1.39-9.27,3.86-13.17,2.47-3.9,6.66-6.93,11.27-7.08-.43,4.45-1.97,8.92-4.66,12.49-2.68,3.57-6.33,6.1-10.48,7.75Z"/><path class="q" d="M52.04,146.11c.36,4.23,1.75,8.36,4.01,11.95,7.09,1.02,14.54.72,21.57-.67-1.18-4.8-1.64-9.65-1.27-14.58-8.07.7-16.52,1.08-24.31,3.3Z"/><path class="r" d="M90.4,97.97c-6.31-4.28-14.08-6.35-21.69-5.78-7.76.58-15.04,3.78-22.15,6.93-7.36,13.37-9.92,29.57-5.77,44.26,2.09,1.69,4.58,2.4,7.17,3.12,11.49,3.18,24.32,1.08,34.2-5.58.88-6.24,2.87-12.2,5.79-17.78,2.31-3.11,5.08-6.98,5.65-11.58s.29-9.87-3.2-13.58Z"/><path class="q" d="M68.71,92.19c-3.24.24-6.4.96-9.5,1.92-.59,1-.62,2.37-.05,3.41.79,1.44,2.45,2.26,4.1,2.4,1.64.14,3.28-.3,4.83-.85,3.8-1.36,7.31-3.5,10.34-6.17-3.19-.69-6.46-.96-9.71-.71Z"/><path class="u" d="M67.65,113.38c-1.49-.14-2.98-.2-4.47-.23.32-2.16.69-4.3,1.18-6.39l-2.77-1.64c-2.98-.45-5.79-.25-8.73.39-.73,2.69-1.31,5.42-1.75,8.17-2.11.26-4.21.59-6.29,1.03-.62,2.69-.73,5.35-.04,8.03l2.77,1.64c.85-.04,1.73-.08,2.62-.12-.06,2.55-.03,5.1.17,7.64l2.77,1.64c2.89-.16,5.71-.15,8.59-.31.07-3.01.18-6.08.36-9.14,2.42.04,4.8.12,7.03.28.85-2.7,1.17-6.52,1.33-9.35l-2.77-1.64Z"/><path class="v" d="M67.65,113.38c-2.49-.23-4.99-.29-7.49-.27.36-2.7.81-5.38,1.43-8-2.98-.45-5.79-.25-8.73.39-.73,2.69-1.31,5.42-1.75,8.17-2.11.26-4.21.59-6.29,1.03-.62,2.69-.73,5.35-.04,8.03,1.74-.09,3.56-.16,5.42-.21-.14,3.12-.1,6.26.14,9.38,2.89-.16,5.71-.15,8.59-.31.07-3.01.18-6.08.36-9.14,2.42.04,4.8.12,7.03.28.85-2.7,1.17-6.52,1.33-9.35Z"/><path class="q" d="M82.41,71.12c-3.4,6.95-5.78,14.21-7.11,21.84-2.19,1.34-4.45,2.66-6.95,3.23-2.5.57-4.93.84-6.94-.75.39-4.87,1.94-9.65,4.5-13.81,3.71-6.04,9.48-9.6,16.5-10.51Z"/><path class="s" d="M90.51,98.11c-2.37.57-4.49,2.11-5.91,4.12-1.73,2.45-2.48,5.5-2.52,8.5-.05,3,.56,5.97,1.35,8.87-3.86,7.48-6.25,15.93-6.67,24.37,1.87-.88,3.68-1.89,5.4-3.04.88-6.24,2.87-12.2,5.79-17.78,2.31-3.11,5.08-6.98,5.65-11.58.57-4.55.28-9.73-3.09-13.44Z"/><path class="q" d="M86.6,119.71c2.76-2.26,4.67-5.53,5.28-9.04.61-3.51-.09-7.24-1.94-10.29-2.08.6-3.61,2.9-4.26,4.97-1.45,4.58-1.12,10.01.92,14.36Z"/></g><g id="l"><path class="r" d="M122.57,143.94c-2.23-17.48-13.01-33.95-27.94-43.29-3.92,2.38-6.93,6.82-7.48,10.69,2.79,16.17,12.72,30.97,26.62,39.7,1.98,1.24,4.91.6,6.76-.84,1.85-1.44,2.35-3.94,2.05-6.26Z"/><path class="s" d="M120.39,146.85c.25.77.68,1.54,1.11,2.29,1.02-1.44,1.3-3.38,1.06-5.2-2.23-17.48-13.01-33.95-27.94-43.29-1.08.65-2.07,1.47-2.98,2.38,13.27,11.69,23.34,26.99,28.75,43.83Z"/><path class="q" d="M125.97,154.27c-1.03-3.13-2.13-6.67-4.96-8.37-1.42-.85-3.32-.82-4.71.07-1.39.89-2.46,2.52-2.28,4.16,2.63,2.64,4.77,5.77,6.28,9.19,2.19-1.06,4.61-2.86,5.67-5.05Z"/><g id="m"><path class="r" d="M140.77,180.43c-1.05-9.65-4.62-19.13-10.87-26.57-1.52-1.81-3.54-3.63-5.89-3.41-1.53.14-2.87,1.16-3.74,2.43-.87,1.27-1.76,2.75-1.49,4.26,1.68,9.52,6.55,18.45,13.65,25.02,1.05.97,2.76.78,4.18.61,1.41-.18,3.25-1.25,4.17-2.34Z"/><path class="s" d="M124.01,150.45c-.52.05-1.01.23-1.48.46,5.67,9.92,13.5,18.85,16.96,29.72.32.1.63.13.93.13.11-.11.25-.21.34-.32-1.05-9.65-4.62-19.13-10.87-26.57-1.52-1.81-3.54-3.63-5.89-3.41Z"/><path class="q" d="M142.69,184.11c-.98-1.76-1.72-3.93-3.47-4.94-1.09-.63-2.44-.78-3.64-.41-1.2.37-2.32,1.11-2.87,2.24.88,2.11,1.62,4.28,2.21,6.49-1.75,2.93-2.49,6.54-1.76,9.88.51,2.31,2.06,4.36,2.39,6.7.75.14,1.51-.38,1.83-1.08s.29-1.5.21-2.26c-.16-1.44-.51-2.86-1.05-4.2.42-.89,1.1-1.39,1.95-1.88,2.78,2.83,4.83,6.56,5.53,10.47,1.03.32,2.13.46,3.18.22.86,1.2,1.66,2.22,2.91,3.02,1.24.01,2.23-.29,3.39-.72.68-1.43.69-3.03.56-4.62.28-.26.46-.19.74-.45-.12-5.78-2.9-11.28-6.52-15.8-.68-.85-1.4-1.69-2.31-2.29-.91-.6-2.23-.66-3.29-.38Z"/><path class="r" d="M136.74,192.93c-1.25-1.79-2.14-3.82-2.59-5.95,2.48-2.95,6.12-4.69,9.97-4.83,3.03,1.87,5.34,4.67,7.06,7.79-4.09,3.3-9.4,4.48-14.44,3ZM134.65,193.79s-1.32-2.92-2.22-4.24c-1.03,2.59-1.23,5.31-.34,7.95.6.35,1.23.12,1.9-.05l.65-3.66Z"/></g></g><g id="n"><path class="q" d="M149.67,295.75c-1.05-5.45-2.51-10.86-4.58-16.01-2.07-5.15-6.37-11.69-10.57-15.32-2.44-2.11-9.35-3.12-12.49,1.28,8.84,10.34,14.75,21.63,18.7,34.64,3.62-.93,6.87-1.48,8.94-4.6Z"/><polygon class="q" points="83.94 195.19 88.35 204.84 102.82 194.24 94.36 180.75 83.94 195.19"/><path class="r" d="M138.13,267.94c2.7-12.74-1.25-25.88-5.62-38.15-2.94-8.26-6.09-16.46-9.98-24.31-4.07-8.2-8.82-16.66-17-20.76-10.54,3.92-18.4,12.21-21.58,23,6.98,21.8,19.09,41.95,35.07,58.35,2.3,2.36,5.43,3.57,8.64,4.3,3.22.73,9.79.81,10.48-2.42Z"/><path class="r" d="M153.8,287.41c2.02-7.15,2.63-16.44-2.58-21.33-1.96-1.84-4.74-2.59-7.27-1.97-2.52.63-5,2.67-5.37,5.45-.88,6.45,2.07,13.33,7.18,16.75,1.89,1.26,5.89,1.72,8.03,1.1Z"/><path class="s" d="M122.53,205.48c-4.07-8.2-8.82-16.66-17-20.76-5.63,2.09-10.46,5.47-14.26,9.77.35,2.25,1.36,4.46,2.11,6.63,2.95,8.46,6.35,16.76,10.18,24.86,7.47,15.8,16.57,30.84,27.12,44.77.69.03,1.41.03,2.11-.01,2.05-.02,3.76-.61,4.97-1.96.17-.25.3-.52.37-.83,2.7-12.74-1.25-25.88-5.62-38.15-2.94-8.26-6.09-16.46-9.98-24.31Z"/><path class="s" d="M153.8,287.41c2.02-7.15,2.63-16.44-2.58-21.33-1.96-1.84-4.74-2.59-7.27-1.97-2.03.5-4,1.93-4.9,3.9.64-.42,1.27-.86,1.84-1.38,3.67,6.07,6.18,13.43,7.61,20.37-.09.08-.22.17-.33.26,1.91.47,4.18.55,5.62.13Z"/><g id="o"><path class="r" d="M160.7,330.86c-5.86-2.4-10.46-7.21-14-12.33-3.4-4.91-7.16-11.3-8.11-17.27-.52-3.27.19-6.91,2.61-9.17,3.21-2.99,7.94-3.77,12.12-2.47,2.44.76,4.42,2.54,6.07,4.49,6.97,8.24,8.9,19.66,8.66,30.45-.04,2.01-.2,4.15-1.43,5.74-1.23,1.59-4.08,1.33-5.94.56Z"/><path class="s" d="M153.32,289.62c-2.6-.81-5.4-.81-7.93.01,3.77,13.87,8.8,29.4,17.69,40.92.26.34.53.64.8.9,1.11-.03,2.13-.36,2.75-1.16,1.23-1.59,1.38-3.73,1.43-5.74.24-10.79-1.69-22.22-8.66-30.45-1.65-1.95-3.64-3.73-6.07-4.49Z"/><path class="q" d="M189.53,359.02c-8.9-9.49-17.1-20.2-23.54-31.49-1.63-.91-3.38-1.77-5.25-1.8-1.87-.03-3.88,1.01-4.4,2.81,6.99,11.11,15.76,21.24,25.74,29.77,1.77,1.51,5.2,1.29,7.45.72Z"/></g><path class="s" d="M103.34,213.43c-1.64,6.8-4.46,13.31-8.28,19.17.35.87.58,1.6.92,2.46,4.42-4.9,7.42-11.08,8.51-17.58.25-1.49-.23-2.84-1.15-4.05Z"/></g><g id="p"><path class="r" d="M97.17,37.18c-.56-4.64-2.74-9.26-6.62-11.87-.03-.06-.06-.13-.08-.19-9.32,2.62-26.62,5.17-35.19,4.65-2.74-.54-5.33-1.69-7.61-3.3,0,.03-.02.06-.03.08-4.54,8.74-7.23,19.98-5.9,30.14,1.33,10.15,6.05,19.83,13.23,27.14,3.89.97,8.04,1.38,12.04,1.17,3.36-2.98,6.45-6.61,8.97-10.33,0,0,5.3-2.23,8.18-2.09,5.88-5.4,9.49-13.82,11.51-21.55,1.18-4.52,2.07-9.21,1.51-13.86Z"/><path class="s" d="M97.17,37.18c-.56-4.64-2.74-9.26-6.62-11.87-.03-.06-.06-.13-.08-.19-.33.09-.69.18-1.03.27-6.91,5.84-11.22,14.39-14.7,22.84-2.13,5.16-4.05,10.42-5.47,15.82-1.26,4.77-2.12,9.65-2.35,14.58-.08,1.73-.48,4.46-.09,6.37.06,0,.12,0,.18,0,3.36-2.98,6.45-6.61,8.97-10.33,0,0,5.3-2.23,8.18-2.09,5.88-5.4,9.49-13.82,11.51-21.55,1.18-4.52,2.07-9.21,1.51-13.86Z"/><path class="r" d="M90.47,25.12c-4.73-11.96-15.59-21.63-27.97-25.12-6.96,7.47-12.09,16.63-14.84,26.47,2.28,1.61,4.88,2.76,7.61,3.3,8.58.52,25.87-2.03,35.19-4.65Z"/><path class="s" d="M58.56,57.36c-.4-3.06.73-6.28,2.96-8.42,2.23-2.13,5.5-3.13,8.54-2.59,1.99,1.97,2.9,4.88,2.22,7.59-.68,2.72-2.85,5.01-5.53,5.83-2.68.82-6.12-.53-8.19-2.41Z"/><path class="s" d="M42.24,52.96c.13-1.59.7-3.88,2.41-4.26,1-.22,1.99.39,2.74,1.08,2.35,2.15,3.63,5.43,3.36,8.61-1.8,1.55-4.27,2.29-6.42.98-1.78-1.08-2.2-4.09-2.11-6.01,0-.13.01-.26.03-.4Z"/><path class="w" d="M63.76,49.15c-2.23,2.13-3.36,5.36-2.96,8.42,1.22,1.11,2.92,2.02,4.65,2.42.44-.03.88-.09,1.3-.21,2.68-.82,4.86-3.11,5.53-5.83.67-2.68-.22-5.54-2.15-7.51-2.35.12-4.67,1.08-6.37,2.71Z"/><path class="w" d="M46.61,49.18s0,0,0,0c-1.71.38-2.28,2.67-2.41,4.26-.01.14-.02.27-.03.4-.09,1.92.34,4.93,2.11,6.01.11.07.23.11.35.17,1.48.03,2.94-.63,4.12-1.64.27-3.18-1.01-6.45-3.36-8.61-.24-.22-.5-.41-.78-.59Z"/><path class="s" d="M72,68.09c.97-.23,1.65-1.14,1.88-2.11.58-2.36-1.24-4.59-3.7-4.2-2.21.35-2.57,2.59-1.61,4.32.64,1.17,2,2.32,3.43,1.99Z"/><path class="w" d="M73.88,65.99c.35-1.42-.18-2.77-1.18-3.56-.33-.05-.68-.07-1.04,0-2.21.35-2.57,2.59-1.61,4.32.28.51.7,1,1.19,1.38.25.03.5.03.76-.03.97-.23,1.65-1.14,1.88-2.11Z"/><path class="s" d="M45.94,68.37c.85-.79,1.2-2.09.85-3.2-.35-1.11-1.38-1.97-2.53-2.13-.37,1.88.29,4.02,1.69,5.32Z"/><path class="w" d="M46.79,65.17c-.25-.79-.86-1.45-1.6-1.82-.21,1.55.25,3.2,1.23,4.43.49-.77.65-1.74.37-2.61Z"/><path class="r" d="M82.88,62.51c-.77-6.29.76-12.93,4.17-18.06,2.61,2.56,4.38,6.61,3.64,10.43-.74,3.83-4.48,6.46-7.82,7.63Z"/><path class="s" d="M62.75.08c-3.26,9.65-5.56,19.61-6.84,29.71,8.76.37,25.45-2.12,34.56-4.67C85.77,13.24,75.02,3.62,62.75.08Z"/><path class="u" d="M77.4,17.43c-1.1-.39-2.23-.7-3.36-.98.24-1.41.44-2.82.49-4.21-1.12-.37-2.21-.61-3.38-.71-.1,1.43-.27,2.85-.47,4.27-1.21-.18-2.43-.32-3.65-.38-.28,1.17-.43,2.27-.71,3.44,1.28.07,2.55.17,3.81.3-.27,1.41-.57,2.81-.93,4.2,1.1.13,2.08.31,3.18.44.35-1.39.7-2.81,1.03-4.24,1.05.16,2.1.34,3.15.56.39-.87.72-1.71.83-2.68Z"/></g></g></g></svg>